<svg width="21" height="16" viewBox="0 0 21 16" fill="#000" xmlns="http://www.w3.org/2000/svg">
<path d="M16.625 0H4.625C2.415 0 0.625 1.79 0.625 4V12C0.625 14.21 2.415 16 4.625 16H16.625C18.835 16 20.625 14.21 20.625 12V4C20.625 1.79 18.835 0 16.625 0ZM14.765 9.77C14.525 9.97 14.195 10.05 13.885 9.97L2.775 7.25C3.075 6.52 3.785 6 4.625 6H16.625C17.295 6 17.885 6.34 18.255 6.84L14.765 9.77ZM4.625 2H16.625C17.725 2 18.625 2.9 18.625 4V4.55C18.035 4.21 17.355 4 16.625 4H4.625C3.895 4 3.215 4.21 2.625 4.55V4C2.625 2.9 3.525 2 4.625 2Z" fill="#111"/>
</svg>
