<svg width="15" height="14" viewBox="0 0 15 14" fill="#000" xmlns="http://www.w3.org/2000/svg">
<path d="M1.775 4.2H1.975C2.745 4.2 3.375 4.83 3.375 5.6V12.6C3.375 13.37 2.745 14 1.975 14H1.775C1.005 14 0.375 13.37 0.375 12.6V5.6C0.375 4.83 1.005 4.2 1.775 4.2ZM7.375 0C8.145 0 8.775 0.63 8.775 1.4V12.6C8.775 13.37 8.145 14 7.375 14C6.605 14 5.975 13.37 5.975 12.6V1.4C5.975 0.63 6.605 0 7.375 0ZM12.975 8C13.745 8 14.375 8.63 14.375 9.4V12.6C14.375 13.37 13.745 14 12.975 14C12.205 14 11.575 13.37 11.575 12.6V9.4C11.575 8.63 12.205 8 12.975 8Z" fill="#111"/>
</svg>
